<svg width="143" height="55" viewBox="0 0 143 55" fill="none" xmlns="http://www.w3.org/2000/svg">
<path d="M53.419 31.3656C53.6986 31.81 53.8778 32.2903 53.9566 32.8088C54.0355 33.3273 54.0068 33.841 53.8706 34.3475C53.7368 34.8564 53.505 35.3176 53.1729 35.7285C52.8432 36.1395 52.4418 36.4621 51.9711 36.6986C51.3045 37.0451 50.6976 37.4799 50.1552 38.0008C49.6104 38.5217 49.1517 39.1071 48.7741 39.7618C48.399 40.4141 48.1218 41.107 47.9426 41.8381C47.7658 42.5716 47.6918 43.3147 47.7252 44.0674C47.7539 44.5906 47.675 45.0996 47.4863 45.587C47.2975 46.0768 47.018 46.5069 46.6452 46.8749C46.2797 47.25 45.852 47.5319 45.3645 47.7207C44.8771 47.9094 44.3706 47.9907 43.8497 47.9596C43.1018 47.9286 42.3635 48.0026 41.6372 48.1818C40.9108 48.3634 40.2251 48.6406 39.5775 49.0157C38.9276 49.3885 38.3446 49.8472 37.8261 50.3896C37.3077 50.9296 36.8752 51.5317 36.5263 52.1959C36.4069 52.4277 36.2659 52.6427 36.1034 52.8434C35.9409 53.0442 35.757 53.2257 35.5563 53.3882C35.3556 53.5507 35.1381 53.6917 34.9087 53.8087C34.677 53.9258 34.438 54.019 34.1872 54.0859C33.9387 54.1528 33.6854 54.191 33.4274 54.2054C33.1693 54.2197 32.9113 54.2054 32.6556 54.1648C32.3999 54.1241 32.1514 54.0572 31.9101 53.9664C31.6688 53.8733 31.4394 53.7562 31.2244 53.6152C30.5888 53.2114 29.9102 52.9056 29.1887 52.6953C28.4671 52.485 27.7311 52.3799 26.9785 52.3799C26.2282 52.3799 25.4899 52.485 24.7684 52.6953C24.0468 52.9056 23.3682 53.2114 22.735 53.6152C22.2978 53.9043 21.8223 54.0883 21.3038 54.1695C20.7877 54.2532 20.2788 54.2221 19.7746 54.0811C19.2633 53.9521 18.8022 53.7251 18.3888 53.3954C17.9778 53.0657 17.6505 52.6666 17.4092 52.1959C17.0627 51.5269 16.6279 50.92 16.107 50.3753C15.5885 49.8305 15.0007 49.3693 14.3508 48.9918C13.6985 48.6143 13.008 48.3371 12.2769 48.1555C11.5457 47.9763 10.805 47.9047 10.0548 47.9381C9.7991 47.9453 9.54583 47.9286 9.29256 47.8856C9.04167 47.8425 8.79796 47.7733 8.55903 47.6801C8.32248 47.5845 8.09549 47.4674 7.88284 47.3264C7.6678 47.1855 7.47187 47.0254 7.29028 46.8438C7.11108 46.6622 6.951 46.4639 6.81002 46.2488C6.67144 46.0338 6.55436 45.8068 6.46118 45.5679C6.36799 45.3313 6.30109 45.0852 6.25808 44.832C6.21508 44.5787 6.20074 44.323 6.2103 44.0674C6.24375 43.3147 6.17207 42.5716 5.99287 41.8381C5.81606 41.1046 5.53889 40.4117 5.16376 39.7594C4.78625 39.1071 4.32749 38.5193 3.78272 37.9984C3.23795 37.4776 2.63344 37.0451 1.96443 36.6986C1.51045 36.4525 1.12338 36.1252 0.805593 35.719C0.48542 35.3128 0.260822 34.8588 0.129407 34.3571C-0.00678524 33.8505 -0.0354573 33.3368 0.0457803 32.8183C0.127018 32.2974 0.308608 31.8196 0.592941 31.3775C0.99913 30.742 1.30736 30.061 1.51762 29.337C1.72788 28.6131 1.83301 27.8724 1.83301 27.1173C1.83301 26.3623 1.72788 25.624 1.51762 24.9C1.30736 24.1761 0.99913 23.4951 0.592941 22.8595C0.308608 22.4199 0.124629 21.942 0.0457803 21.4235C-0.0354573 20.9074 -0.00917505 20.3937 0.129407 19.8896C0.256043 19.383 0.480642 18.9219 0.800814 18.5109C1.1186 18.0976 1.50806 17.7654 1.96443 17.5169C2.63344 17.1705 3.23795 16.7356 3.78272 16.2148C4.32749 15.6939 4.78625 15.1085 5.16376 14.4538C5.53889 13.8015 5.81606 13.1086 5.99287 12.3751C6.17207 11.6439 6.24375 10.9008 6.2103 10.1458C6.19835 9.88776 6.21269 9.62971 6.25569 9.37644C6.29631 9.12078 6.36561 8.87228 6.45879 8.63096C6.55197 8.38963 6.66905 8.16026 6.81002 7.94283C6.951 7.72779 7.11108 7.52708 7.29506 7.3431C7.47665 7.16151 7.67497 6.99903 7.8924 6.85806C8.10744 6.71709 8.33682 6.59762 8.57575 6.50444C8.81708 6.41125 9.06318 6.34435 9.31884 6.30134C9.57211 6.25834 9.83016 6.244 10.0858 6.25595C10.8337 6.28462 11.5696 6.21055 12.296 6.03135C13.0223 5.85215 13.7081 5.57737 14.3556 5.20225C15.0031 4.82951 15.5885 4.37314 16.107 3.83315C16.6255 3.29316 17.0603 2.69104 17.4092 2.02919C17.5286 1.79981 17.6696 1.58477 17.8321 1.38407C17.9946 1.18336 18.1785 1.00177 18.3792 0.841686C18.5799 0.67921 18.795 0.538239 19.0244 0.421161C19.2537 0.304083 19.4927 0.210898 19.7412 0.143996C19.9897 0.0770945 20.2429 0.0364753 20.501 0.0221395C20.759 0.00780311 21.0147 0.0197502 21.2704 0.0579797C21.5236 0.0985991 21.7721 0.163111 22.0134 0.253906C22.2548 0.344701 22.4841 0.45939 22.7016 0.597972C23.3347 1.00416 24.0133 1.31478 24.7349 1.52504C25.4565 1.73769 26.1948 1.84282 26.9474 1.84282C27.6977 1.84282 28.436 1.73769 29.1576 1.52504C29.8792 1.31478 30.5577 1.00416 31.1909 0.597972C31.4084 0.457001 31.6401 0.339923 31.8838 0.246738C32.1252 0.153553 32.376 0.0866517 32.6317 0.046033C32.8898 0.00541422 33.1478 -0.00892232 33.4082 0.00541407C33.6687 0.0197498 33.9243 0.0603697 34.1752 0.127271C34.4261 0.194173 34.6674 0.287357 34.8992 0.404435C35.131 0.523902 35.3484 0.664874 35.5515 0.82735C35.7546 0.992215 35.9362 1.17619 36.101 1.3769C36.2659 1.57999 36.4069 1.79742 36.5263 2.02919C36.8728 2.69821 37.3053 3.3051 37.8261 3.84987C38.3446 4.39465 38.93 4.85579 39.5799 5.23331C40.2298 5.61082 40.9204 5.88799 41.6491 6.06719C42.3802 6.24639 43.1209 6.32046 43.8712 6.28701C44.1292 6.27506 44.3849 6.2894 44.6406 6.33241C44.8938 6.37303 45.1423 6.43993 45.3837 6.53311C45.6226 6.6263 45.852 6.74576 46.0694 6.88674C46.2844 7.02771 46.4851 7.19018 46.6667 7.37177C46.8483 7.55575 47.0108 7.75646 47.1518 7.97389C47.2927 8.19132 47.4098 8.4207 47.503 8.66202C47.5962 8.90334 47.6631 9.15184 47.7037 9.4075C47.7467 9.66316 47.7611 9.92121 47.7467 10.1793C47.7157 10.9295 47.7897 11.6678 47.9689 12.3966C48.1457 13.1253 48.4229 13.8135 48.7956 14.4634C49.1708 15.1133 49.6271 15.6987 50.1671 16.2171C50.7071 16.7356 51.3068 17.1681 51.9711 17.5169C52.2005 17.634 52.4131 17.7774 52.6138 17.9399C52.8121 18.1047 52.9937 18.2863 53.1538 18.487C53.3163 18.6901 53.4549 18.9052 53.5719 19.1369C53.689 19.3663 53.7822 19.6076 53.8491 19.8561C53.916 20.107 53.9566 20.3603 53.971 20.6183C53.9853 20.8764 53.9734 21.1344 53.9327 21.3901C53.8945 21.6457 53.83 21.8942 53.7392 22.1356C53.6484 22.3769 53.5337 22.6086 53.3951 22.8261C52.9866 23.464 52.6759 24.1474 52.4633 24.8761C52.2506 25.6025 52.1455 26.3456 52.1479 27.1054C52.1503 27.8628 52.2602 28.6059 52.4752 29.3323C52.6903 30.061 53.0057 30.742 53.419 31.3775V31.3656Z" fill="#FF7D7D"/>
<path d="M26.9136 22.6319C24.5491 22.6319 22.6319 24.5491 22.6319 26.9136C22.6319 29.2794 24.5491 31.1953 26.9136 31.1953C29.2791 31.1953 31.1953 29.2791 31.1953 26.9136C31.1953 24.5491 29.2791 22.6319 26.9136 22.6319ZM26.9136 29.0546C25.7312 29.0546 24.7729 28.0973 24.7729 26.9136C24.7729 25.7312 25.7312 24.7726 26.9136 24.7726C28.0973 24.7726 29.0546 25.7312 29.0546 26.9136C29.0546 28.0973 28.0973 29.0546 26.9136 29.0546Z" fill="white"/>
<path d="M38.2206 27.2195C41.2443 22.1737 41.94 17.3182 39.5308 14.9091C37.1202 12.4985 32.264 13.1939 27.2195 16.2176C22.175 13.1946 17.3187 12.4992 14.9085 14.9094C12.4992 17.3186 13.195 22.1755 16.218 27.2192C13.1946 32.2643 12.4982 37.1201 14.9085 39.5307C17.3187 41.9399 22.175 41.2441 27.2195 38.2211C32.2653 41.2452 37.1202 41.9399 39.5305 39.5307C41.9397 37.1201 41.2457 32.2653 38.2206 27.2195ZM35.4873 15.7472C36.5725 15.7472 37.3869 16.0115 37.9078 16.5317C39.2752 17.899 38.8699 21.2417 36.8068 25.0722C35.8189 23.7124 34.6708 22.362 33.3736 21.0645C32.0737 19.7646 30.7194 18.615 29.3572 17.6248C31.5765 16.425 33.7146 15.7472 35.4873 15.7472ZM35.5065 27.2195C34.4908 28.7259 33.2394 30.2649 31.7513 31.7533C30.3065 33.1991 28.764 34.4522 27.2195 35.4965C25.6753 34.4519 24.1328 33.1984 22.687 31.7513C21.2006 30.2652 19.9505 28.7296 18.9362 27.2247C19.9901 25.6623 21.2566 24.1167 22.6856 22.6864C24.1328 21.2406 25.6739 19.9879 27.2195 18.9422C28.763 19.9879 30.3051 21.2406 31.7513 22.6864C33.2394 24.1749 34.4908 25.7128 35.5065 27.2195ZM16.5322 16.5317C17.052 16.0115 17.8651 15.7472 18.9513 15.7472C20.7244 15.7472 22.8624 16.4254 25.0821 17.6248C23.7182 18.6147 22.3642 19.7646 21.0636 21.0645C19.7665 22.3616 18.6197 23.7121 17.6318 25.0722C15.5694 21.2417 15.1638 17.899 16.5322 16.5317ZM18.9517 38.6908C17.8654 38.6908 17.052 38.4272 16.5315 37.908C15.5629 36.9391 15.491 34.8417 16.3377 32.298C16.655 31.3504 17.1019 30.3671 17.6359 29.3737C18.6224 30.7308 19.7692 32.0781 21.0643 33.3739C22.3656 34.6741 23.7188 35.8247 25.0828 36.8146C22.8628 38.014 20.7257 38.6908 18.9517 38.6908ZM37.9078 37.9077C37.3869 38.4272 36.5738 38.6915 35.4873 38.6915C33.7146 38.6915 31.5765 38.0137 29.3576 36.8143C30.7197 35.8254 32.074 34.6752 33.3739 33.3763C34.6711 32.0781 35.8189 30.7273 36.8071 29.3679C38.8699 33.1984 39.2752 36.5404 37.9078 37.9077Z" fill="white"/>
<path d="M70.2969 19.4492L64.6484 35H62.3398L68.8438 17.9375H70.332L70.2969 19.4492ZM75.0312 35L69.3711 19.4492L69.3359 17.9375H70.8242L77.3516 35H75.0312ZM74.7383 28.6836V30.5352H65.1523V28.6836H74.7383ZM82.543 35H80.375V20.9844C80.375 20.0703 80.5391 19.3008 80.8672 18.6758C81.2031 18.043 81.6836 17.5664 82.3086 17.2461C82.9336 16.918 83.6758 16.7539 84.5352 16.7539C84.7852 16.7539 85.0352 16.7695 85.2852 16.8008C85.543 16.832 85.793 16.8789 86.0352 16.9414L85.918 18.7109C85.7539 18.6719 85.5664 18.6445 85.3555 18.6289C85.1523 18.6133 84.9492 18.6055 84.7461 18.6055C84.2852 18.6055 83.8867 18.6992 83.5508 18.8867C83.2227 19.0664 82.9727 19.332 82.8008 19.6836C82.6289 20.0352 82.543 20.4688 82.543 20.9844V35ZM85.3555 22.3203V23.9844H78.3711V22.3203H85.3555ZM89.3984 35H87.2305V21.2188C87.2305 20.2578 87.4141 19.4453 87.7812 18.7812C88.1562 18.1172 88.6914 17.6133 89.3867 17.2695C90.082 16.9258 90.9062 16.7539 91.8594 16.7539C92.4297 16.7539 92.9844 16.8242 93.5234 16.9648C94.0625 17.0977 94.6172 17.2656 95.1875 17.4688L94.8125 19.2969C94.4609 19.1562 94.0469 19.0234 93.5703 18.8984C93.0938 18.7656 92.5781 18.6992 92.0234 18.6992C91.0938 18.6992 90.4219 18.9102 90.0078 19.332C89.6016 19.7461 89.3984 20.375 89.3984 21.2188V35ZM91.9883 22.3203V23.9844H85.2266V22.3203H91.9883ZM96.2539 22.3203V35H94.0859V22.3203H96.2539ZM102.148 17V35H99.9688V17H102.148ZM107.984 22.3203V35H105.805V22.3203H107.984ZM105.641 18.957C105.641 18.6055 105.746 18.3086 105.957 18.0664C106.176 17.8242 106.496 17.7031 106.918 17.7031C107.332 17.7031 107.648 17.8242 107.867 18.0664C108.094 18.3086 108.207 18.6055 108.207 18.957C108.207 19.293 108.094 19.582 107.867 19.8242C107.648 20.0586 107.332 20.1758 106.918 20.1758C106.496 20.1758 106.176 20.0586 105.957 19.8242C105.746 19.582 105.641 19.293 105.641 18.957ZM113.82 17V35H111.641V17H113.82ZM124.777 32.832V26.3047C124.777 25.8047 124.676 25.3711 124.473 25.0039C124.277 24.6289 123.98 24.3398 123.582 24.1367C123.184 23.9336 122.691 23.832 122.105 23.832C121.559 23.832 121.078 23.9258 120.664 24.1133C120.258 24.3008 119.938 24.5469 119.703 24.8516C119.477 25.1562 119.363 25.4844 119.363 25.8359H117.195C117.195 25.3828 117.312 24.9336 117.547 24.4883C117.781 24.043 118.117 23.6406 118.555 23.2812C119 22.9141 119.531 22.625 120.148 22.4141C120.773 22.1953 121.469 22.0859 122.234 22.0859C123.156 22.0859 123.969 22.2422 124.672 22.5547C125.383 22.8672 125.938 23.3398 126.336 23.9727C126.742 24.5977 126.945 25.3828 126.945 26.3281V32.2344C126.945 32.6562 126.98 33.1055 127.051 33.582C127.129 34.0586 127.242 34.4688 127.391 34.8125V35H125.129C125.02 34.75 124.934 34.418 124.871 34.0039C124.809 33.582 124.777 33.1914 124.777 32.832ZM125.152 27.3125L125.176 28.8359H122.984C122.367 28.8359 121.816 28.8867 121.332 28.9883C120.848 29.082 120.441 29.2266 120.113 29.4219C119.785 29.6172 119.535 29.8633 119.363 30.1602C119.191 30.4492 119.105 30.7891 119.105 31.1797C119.105 31.5781 119.195 31.9414 119.375 32.2695C119.555 32.5977 119.824 32.8594 120.184 33.0547C120.551 33.2422 121 33.3359 121.531 33.3359C122.195 33.3359 122.781 33.1953 123.289 32.9141C123.797 32.6328 124.199 32.2891 124.496 31.8828C124.801 31.4766 124.965 31.082 124.988 30.6992L125.914 31.7422C125.859 32.0703 125.711 32.4336 125.469 32.832C125.227 33.2305 124.902 33.6133 124.496 33.9805C124.098 34.3398 123.621 34.6406 123.066 34.8828C122.52 35.1172 121.902 35.2344 121.215 35.2344C120.355 35.2344 119.602 35.0664 118.953 34.7305C118.312 34.3945 117.812 33.9453 117.453 33.3828C117.102 32.8125 116.926 32.1758 116.926 31.4727C116.926 30.793 117.059 30.1953 117.324 29.6797C117.59 29.1562 117.973 28.7227 118.473 28.3789C118.973 28.0273 119.574 27.7617 120.277 27.582C120.98 27.4023 121.766 27.3125 122.633 27.3125H125.152ZM130.344 17H132.523V32.5391L132.336 35H130.344V17ZM141.09 28.5547V28.8008C141.09 29.7227 140.98 30.5781 140.762 31.3672C140.543 32.1484 140.223 32.8281 139.801 33.4062C139.379 33.9844 138.863 34.4336 138.254 34.7539C137.645 35.0742 136.945 35.2344 136.156 35.2344C135.352 35.2344 134.645 35.0977 134.035 34.8242C133.434 34.543 132.926 34.1406 132.512 33.6172C132.098 33.0938 131.766 32.4609 131.516 31.7188C131.273 30.9766 131.105 30.1406 131.012 29.2109V28.1328C131.105 27.1953 131.273 26.3555 131.516 25.6133C131.766 24.8711 132.098 24.2383 132.512 23.7148C132.926 23.1836 133.434 22.7812 134.035 22.5078C134.637 22.2266 135.336 22.0859 136.133 22.0859C136.93 22.0859 137.637 22.2422 138.254 22.5547C138.871 22.8594 139.387 23.2969 139.801 23.8672C140.223 24.4375 140.543 25.1211 140.762 25.918C140.98 26.707 141.09 27.5859 141.09 28.5547ZM138.91 28.8008V28.5547C138.91 27.9219 138.852 27.3281 138.734 26.7734C138.617 26.2109 138.43 25.7188 138.172 25.2969C137.914 24.8672 137.574 24.5312 137.152 24.2891C136.73 24.0391 136.211 23.9141 135.594 23.9141C135.047 23.9141 134.57 24.0078 134.164 24.1953C133.766 24.3828 133.426 24.6367 133.145 24.957C132.863 25.2695 132.633 25.6289 132.453 26.0352C132.281 26.4336 132.152 26.8477 132.066 27.2773V30.1016C132.191 30.6484 132.395 31.1758 132.676 31.6836C132.965 32.1836 133.348 32.5938 133.824 32.9141C134.309 33.2344 134.906 33.3945 135.617 33.3945C136.203 33.3945 136.703 33.2773 137.117 33.043C137.539 32.8008 137.879 32.4688 138.137 32.0469C138.402 31.625 138.598 31.1367 138.723 30.582C138.848 30.0273 138.91 29.4336 138.91 28.8008Z" fill="white"/>
</svg>
